<?xml version="1.0" encoding="utf-8"?>
<!-- Svg Vector Icons : http://www.onlinewebfonts.com/icon -->
<!DOCTYPE svg PUBLIC "-//W3C//DTD SVG 1.1//EN" "http://www.w3.org/Graphics/SVG/1.1/DTD/svg11.dtd">
<svg version="1.1" xmlns="http://www.w3.org/2000/svg" xmlns:xlink="http://www.w3.org/1999/xlink" x="0px" y="0px" viewBox="0 0 1000 1000" enable-background="new 0 0 1000 1000" xml:space="preserve">
<metadata> Svg Vector Icons : http://www.onlinewebfonts.com/icon </metadata>
<g><path d="M45,10v980V10z"/><path d="M80,10v980V10z"/><path d="M115,10v980V10z"/><path d="M150,10v980V10z"/><path d="M185,10v980V10z"/><path d="M220,10v980V10z"/><path d="M255,10v980V10z"/><path d="M290,10v980V10z"/><path d="M325,10v980V10z"/><path d="M360,10v980V10z"/><path d="M395,10v980V10z"/><path d="M430,10v980V10z"/><path d="M465,10v980V10z"/><path d="M500,10v980V10z"/><path d="M535,10v980V10z"/><path d="M570,10v980V10z"/><path d="M605,10v980V10z"/><path d="M640,10v980V10z"/><path d="M675,10v980V10z"/><path d="M710,10v980V10z"/><path d="M745,10v980V10z"/><path d="M780,10v980V10z"/><path d="M815,10v980V10z"/><path d="M850,10v980V10z"/><path d="M885,10v980V10z"/><path d="M920,10v980V10z"/><path d="M955,10v980V10z"/><path d="M10,45h980H10z"/><path d="M10,80h980H10z"/><path d="M10,115h980H10z"/><path d="M10,150h980H10z"/><path d="M10,185h980H10z"/><path d="M10,220h980H10z"/><path d="M10,255h980H10z"/><path d="M10,290h980H10z"/><path d="M10,325h980H10z"/><path d="M10,360h980H10z"/><path d="M10,395h980H10z"/><path d="M10,430h980H10z"/><path d="M10,465h980H10z"/><path d="M10,500h980H10z"/><path d="M10,535h980H10z"/><path d="M10,570h980H10z"/><path d="M10,605h980H10z"/><path d="M10,640h980H10z"/><path d="M10,675h980H10z"/><path d="M10,710h980H10z"/><path d="M10,745h980H10z"/><path d="M10,780h980H10z"/><path d="M10,815h980H10z"/><path d="M10,850h980H10z"/><path d="M10,885h980H10z"/><path d="M10,920h980H10z"/><path d="M10,955h980H10z"/><path d="M815,500c0-42.7-8.3-83.4-24.9-122.2c-16.6-38.8-39-72.4-67.3-100.6s-61.8-50.7-100.6-67.3C583.4,193.3,542.7,185,500,185c-42.7,0-83.4,8.3-122.2,24.9c-38.8,16.6-72.4,39-100.6,67.3s-50.7,61.8-67.3,100.6S185,457.3,185,500c0,42.7,8.3,83.4,24.9,122.2s39,72.4,67.3,100.6c28.3,28.3,61.8,50.7,100.6,67.3C416.6,806.7,457.3,815,500,815c42.7,0,83.4-8.3,122.2-24.9c38.8-16.6,72.4-39,100.6-67.3c28.3-28.3,50.7-61.8,67.3-100.6C806.7,583.4,815,542.7,815,500z M965.9,651.5c-1.5,5.5-5.1,9.1-10.9,10.9l-159.7,52.5v167.3c0,5.8-2.4,10.6-7.1,14.2c-5.5,3.6-10.8,4.4-15.9,2.2l-159.7-51.4l-98.4,135.6c-3.6,4.7-8.4,7.1-14.2,7.1c-5.8,0-10.6-2.4-14.2-7.1l-98.4-135.6l-159.7,51.4c-5.1,2.2-10.4,1.5-15.9-2.2c-4.7-3.6-7.1-8.4-7.1-14.2V714.9L45,662.4c-5.8-1.8-9.5-5.5-10.9-10.9c-1.8-6.2-1.1-11.5,2.2-15.9L134.7,500L36.2,364.4c-3.3-4.7-4-10-2.2-15.9c1.5-5.5,5.1-9.1,10.9-10.9l159.7-52.5V117.7c0-5.8,2.4-10.6,7.1-14.2c5.5-3.6,10.8-4.4,15.9-2.2l159.7,51.4l98.4-135.6c3.3-4.4,8-6.6,14.2-6.6c6.2,0,10.9,2.2,14.2,6.6l98.4,135.6l159.7-51.4c5.1-2.2,10.4-1.5,15.9,2.2c4.7,3.6,7.1,8.4,7.1,14.2v167.3L955,337.6c5.8,1.8,9.5,5.5,10.9,10.9c1.8,5.8,1.1,11.1-2.2,15.9L865.3,500l98.4,135.6C967,640,967.8,645.3,965.9,651.5z"/></g>
</svg>